Coordinates
version=1
nRows=5
nColumns=63
inDegrees=yes

Units are S.I. units (second, meters, Newtons, ...)
If the header above contains a line with 'inDegrees', this indicates whether rotational values are in degrees (yes) or radians (no).

endheader
time	pelvis_tilt	pelvis_list	pelvis_rotation	pelvis_tx	pelvis_ty	pelvis_tz	hip_flexion_r	hip_adduction_r	hip_rotation_r	knee_angle_r	knee_angle_r_beta	ankle_angle_r	subtalar_angle_r	mtp_angle_r	hip_flexion_l	hip_adduction_l	hip_rotation_l	knee_angle_l	knee_angle_l_beta	ankle_angle_l	subtalar_angle_l	mtp_angle_l	L5_S1_Flex_Ext	L5_S1_Lat_Bending	L5_S1_axial_rotation	L4_L5_Flex_Ext	L4_L5_Lat_Bending	L4_L5_axial_rotation	L3_L4_Flex_Ext	L3_L4_Lat_Bending	L3_L4_axial_rotation	L2_L3_Flex_Ext	L2_L3_Lat_Bending	L2_L3_axial_rotation	L1_L2_Flex_Ext	L1_L2_Lat_Bending	L1_L2_axial_rotation	L1_T12_Flex_Ext	L1_T12_Lat_Bending	L1_T12_axial_rotation	Abs_r3	Abs_r2	Abs_r1	Abs_t1	Abs_t2	neck_flexion	neck_bending	neck_rotation	arm_flex_r	arm_add_r	arm_rot_r	elbow_flex_r	pro_sup_r	wrist_flex_r	wrist_dev_r	arm_flex_l	arm_add_l	arm_rot_l	elbow_flex_l	pro_sup_l	wrist_flex_l	wrist_dev_l
      5.06250000	     -3.07878163	     -1.18259052	     93.93378968	      0.20927595	      0.88091571	      0.52367780	     -6.47578124	     -2.24291035	     -0.39947562	      8.42267950	      0.14700349	     25.30860292	     -5.97809404	      0.00000000	     -8.27683586	      1.79500842	     11.52291765	      0.69964707	      0.01221114	     20.05459633	    -13.20721120	      0.00000000	      1.02142579	     -0.24519137	     -0.43591122	      1.89688984	     -0.32610452	     -0.46315567	      1.67810044	     -0.59615828	     -0.46315567	      1.16738754	     -0.59615828	     -0.38142231	      0.94849599	     -0.49999423	     -0.35417786	      0.58364270	     -0.37980142	     -0.32693341	      7.29594230	     -2.77365376	     -2.42440741	      0.00000000	      0.00000000	     28.50214179	     -6.07169899	     -9.00183690	     23.94805686	     -7.85428117	     77.19988046	     46.17872778	     24.74013070	     -7.08542499	      0.36054119	     28.75529451	      3.06036722	    110.24992579	     22.25621566	     81.11636954	     -5.61265591	     -1.68166771
      5.08333333	     -2.93365434	     -1.47998489	     94.35344726	      0.20756467	      0.88047927	      0.52609974	     -6.03378694	     -2.15341588	     -0.71367687	      8.45763736	      0.14761362	     25.24116655	     -6.10257297	      0.00000000	     -7.74888520	      1.68950733	     12.13815347	      0.75979944	      0.01326100	     19.72552233	    -13.37046130	      0.00000000	      0.98962166	     -0.20629461	     -0.39861174	      1.83782638	     -0.27437184	     -0.42352497	      1.62584942	     -0.50158472	     -0.42352497	      1.13103859	     -0.50158472	     -0.34878527	      0.91896267	     -0.42067598	     -0.32387204	      0.56546982	     -0.31955036	     -0.29895880	      7.06876854	     -2.33364592	     -2.21695891	      0.00000000	      0.00000000	     28.49550424	     -6.22705005	     -8.86923352	     24.32494022	     -8.45082726	     79.90308999	     44.71161608	     29.08080747	     -6.88849151	     -0.32122748	     29.00131967	      3.75600153	    113.49868657	     23.21615955	     83.82042120	     -2.42120738	     -2.27312323
      5.10416667	     -2.68326041	     -1.90243083	     94.87847532	      0.20618206	      0.88021803	      0.52829851	     -5.55501199	     -1.95661983	     -1.74260463	      8.30915583	      0.14502213	     25.05177393	     -5.43841726	      0.00000000	     -7.08907517	      1.46936185	     13.58149464	      0.80019154	      0.01396598	     18.93149744	    -14.93296100	      0.00000000	      0.97933043	     -0.17139212	     -0.30873040	      1.81871455	     -0.22795152	     -0.32802605	      1.60894197	     -0.41672281	     -0.32802605	      1.11927675	     -0.41672281	     -0.27013910	      0.90940624	     -0.34950282	     -0.25084345	      0.55958941	     -0.26548640	     -0.23154780	      6.99525936	     -1.93882196	     -1.71706585	      0.00000000	      0.00000000	     28.48987464	     -7.45288462	    -10.42412727	     23.07246819	     -8.76491713	     75.78397078	     42.80250983	     59.29845700	     -4.39253566	      3.33809088	     29.01678704	      4.47857362	    117.22269033	     24.03248507	     83.59168753	     -0.44688865	     -4.82697313
      5.12500000	     -2.56462897	     -2.40792223	     95.68023518	      0.20511464	      0.88001335	      0.53082710	     -5.02971746	     -1.82663978	     -2.58649489	      8.15396289	      0.14231350	     25.02673941	     -5.24577869	      0.00000000	     -6.26168996	      1.33105106	     14.28197670	      0.92581170	      0.01615846	     18.46411557	    -14.94482856	      0.00000000	      0.97905877	     -0.16988212	     -0.28584734	      1.81821005	     -0.22594323	     -0.30371280	      1.60849566	     -0.41305140	     -0.30371280	      1.11896627	     -0.41305140	     -0.25011643	      0.90915398	     -0.34642363	     -0.23225097	      0.55943418	     -0.26314741	     -0.21438551	      6.99331892	     -1.92174057	     -1.58979717	      0.00000000	      0.00000000	     28.48600892	     -8.54967103	    -12.28720725	     21.85100720	     -9.00340850	     77.97371351	     44.30843062	      7.43189085	     -4.97253639	      8.39054333	     28.95412294	      4.80630870	    119.32364062	     25.13994491	     84.28226148	      2.48749185	     -6.39059365
      5.14583333	     -2.45280082	     -2.92430309	     96.64295470	      0.20400818	      0.87989535	      0.53298015	     -4.55793763	     -1.67392058	     -3.36821286	      7.96777764	      0.13906395	     24.93992191	     -5.39574505	      0.00000000	     -5.41060303	      1.20036209	     15.02851191	      1.09172135	      0.01905413	     18.12349449	    -14.86283604	      0.00000000	      0.98640303	     -0.16982980	     -0.30838680	      1.83184906	     -0.22587364	     -0.32766098	      1.62056153	     -0.41292418	     -0.32766098	      1.12736002	     -0.41292418	     -0.26983845	      0.91597385	     -0.34631693	     -0.25056428	      0.56363069	     -0.26306636	     -0.23129010	      7.04577818	     -1.92114867	     -1.71515488	      0.00000000	      0.00000000	     28.48740896	     -9.27126155	    -13.35739748	     19.35846653	     -8.56118138	     72.99750841	     43.63239676	      1.49106576	     -5.99416994	     15.31455550	     28.48157928	      4.94880966	    119.76697523	     25.69889458	     84.68881661	      5.30766589	     -7.34054231
